<svg xmlns="http://www.w3.org/2000/svg" version="1" width="171.822" height="208.004"><path d="M147.163 3.635l-141.315 96.254c-7.863 6.323-9.825 54.398 27.463 75.457l129.363-84.867c-8.134-14.618-28.061-41.176 3.687-62.047-6.399-7.024-12.798-14.938-19.198-24.797z" fill="#fff" fill-rule="evenodd"/><path d="M162.362 90.791l-129.364 85.082 35.824 15.922 17.663 14.927c2.469-4.363 9.514-9.743 17.912-15.424 53.742-20.719 80.411-47.913 57.965-100.506z" fill="#ed1c24" fill-rule="evenodd"/><path d="M24.376 4.31l-18.388 24.653s15.437 7.34 16.974 25.057c.859 9.901-17.58 46.072-17.58 46.072l135.791-92.346c-5.818 1.879-8.437 4.631-19.601 5.052.599-4.846.552-9.406-3.637-12.124-21.097 9.577-41.881 8.801-62.44.606-5.254 1.916-5.005 6.834-4.446 11.922-12.203-1.308-18.393-5.622-26.673-8.891z" fill="#ed1c24" fill-rule="evenodd"/><path d="M57.385 1.68c-4.513-1.255-9.731 4.422-6.611 11.283-12.307-.523-18.028-5.65-26.399-9.453-6.282 9.973-12.563 18.81-18.845 25.256 0 0 17.334 13.502 17.64 23.52.744 24.37-33.46 51.599-18.282 90.38 14.472 36.977 54.212 43.293 63.062 48.926 14.964 9.526 17.239 15.323 17.961 15.413.425.053 3.828-7.011 17.961-15.413 7.13-4.239 48.589-11.948 63.062-48.926 15.178-38.781-19.026-66.01-18.282-90.38.306-10.018 17.64-23.52 17.64-23.52-6.282-6.445-12.563-15.283-18.845-25.256-8.371 3.803-14.092 8.93-26.399 9.453 3.12-6.861-.24-13.877-6.004-11.485-21.46 8.905-36.401 6.116-57.658.202z" stroke="#000" stroke-width="2" fill="none"/><path d="m55.17 7.64c3.857-1.033 7.548 5.861-3.45 5.838" stroke="#000" fill="none"/><path d="m116.651 7.64c-3.857-1.033-7.548 5.861 3.45 5.838" stroke="#000" fill="none"/><path d="M32.868 175.51l129.458-85.145" fill="none"/><path d="M5.466 100.204l141.772-96.419" fill="none"/><path d="m84.824 47.209l-1.312 2.186c-.722 1.202-2.47 3.007-3.88 4.007-1.41 1-3.109 2.489-3.785 3.309l-1.237 1.488 1.312-.343c.719-.19 1.655-.494 2.086-.676.431-.182.783-.081.783.229v.031l-.009.062c-.19.771-2.442 2.538-4.229 3.278-1.71.709-4.246 2.56-4.578 3.299l-.019.062-.009.031v.07100000000000001l.009.031.009.021.009.01.009.01.009.01.028.021c.2.14.751.161 1.388.021 1.116-.246 1.576-.093 1.944.666.564 1.162.241 1.686-1.057 1.686-1.57 0-3.804 1.576-4.106 2.904-.203.89-1.059 1.616-2.898 2.456-3.002 1.372-6.877 3.991-7.146 4.798l-.009.073c0 1.143 2.529 1.063 6.192-.198.821-.283 1.183.005 1.803 1.415.767 1.746.755 1.788-1.029 4.09-1.246 1.607-2.341 2.436-3.53 2.685-2.37.496-3.107.977-6.183 4.048-1.472 1.47-2.95 2.686-3.285 2.695-.131.004-.219.024-.264.062l-.009.01-.009.01-.009.01v.01l-.009.01v.061000000000000006l.009.031.009.021.009.021c.247.455 1.871 1.353 2.785 1.353.669 0 2.298-.764 3.615-1.696 2.312-1.636 2.426-1.66 3.36-.729.532.531.972 1.56.972 2.279 0 1.096-.589 1.596-3.625 3.143-2.246 1.144-4.884 3.111-6.947 5.172-2.773 2.771-3.56 3.282-4.739 3.091-.744-.12-1.161-.171-1.293-.094l-.019.01-.009.01-.009.01-.009.042c-.001.142.25.431.699.926.425.469 1.412.853 2.19.853 2.123 0 8.835-2.501 10.902-4.059 1.92-1.446 3.786-1.725 5.333-.812 2.394 1.412-1.609 4.256-9.147 6.504-2.773.827-5.176 1.632-5.484 1.832l-.019.01-.009.01-.009.01v.01c-.108.179.051.649.378 1.082.787 1.046 4.748 1.096 8.127.094 1.353-.401 4.721-1.764 7.485-3.018 5.014-2.275 5.033-2.271 6.787-1.353 4.076 2.133 3.7 5.864-1.199 11.999-2.133 2.672-4.026 3.863-7.466 4.704-1.273.311-3.889 2.776-3.889 3.663l.038.219h.878c.193-.141.39-.344.585-.604 1.085-1.441 3.272-2.402 5.484-2.414 2.404-.013 5.349-1.334 7.561-3.393 1.943-1.809 3.896-2.348 5.371-1.478.817.482 1.561.53 2.549.156 1.756-.666 2.624-.344 2.624.968 0 .59.618 1.381 1.463 1.863.808.461 2.249 1.588 3.2 2.508.724.701 1.251 1.021 1.529 1.02h.066l.019-.01.019-.01.038-.021.009-.01.009-.01.009-.01.009-.01.009-.021.009-.021.009-.021.009-.031v-.042c.028-.308-.21-.928-.765-1.8-.326-.513-.492-1.024-.444-1.28l.009-.042.009-.021v-.01l.009-.01.019-.031.009-.01.019-.01.009-.01.019-.01c.307-.119 1.932-.058 3.71.146 3.127.359 3.507.547 5.352 2.685.911 1.056 1.659 1.72 2.265 1.998h1.255c.268-.121.456-.295.5-.468l.009-.021v-.093c-.107-.359-1.959-2.121-4.182-3.976-5.051-4.215-5.825-5.755-5.843-11.594-.011-3.492.155-4.386.972-5.287 1.273-1.404 1.972-1.37 5.097.26 2.36 1.231 3.093 1.334 8.458 1.218 5.761-.125 5.93-.089 8.826 1.613 1.623.954 3.606 2.231 4.418 2.841 1.792 1.347 3.611 1.442 4.04.208.507-1.457-2.899-4.282-9.298-7.691-6.363-3.39-7.03-4.338-4.097-5.88 1.668-.877 1.784-.86 4.427.614 2.119 1.182 3.088 1.436 4.446 1.155l1.737-.364-3.823-3.133c-2.102-1.722-4.135-3.55-4.521-4.069-1.116-1.502-3.275-2.498-5.399-2.498-.995 0-1.925-.191-2.18-.427l-.028-.031-.009-.01-.009-.021c-.597-1.066 1.202-1.572 6.22-1.769 6.762-.266 7.692-1.054 3.03-2.56-1.862-.601-4.651-1.362-6.202-1.696-1.891-.407-2.939-.851-3.2-1.363l-.057-.187v-.146c.023-.174.127-.358.302-.552.318-.35 1.835-.311 4.418.125 2.895.489 4.48.598 4.767.26.298-.389-1.036-1.356-3.983-2.987-2.685-1.486-6.074-3.89-7.617-5.412-1.529-1.508-3.801-3.223-5.041-3.809-1.636-.773-2.165-1.297-1.954-1.905.369-1.059 2.942-1.07 4.606-.021.676.426 2.448.77 3.936.76l2.709-.021-1.793-.728c-1.791-.727-6.664-4.192-7.042-4.975l-.019-.052v-.041l.009-.01.009-.01.009-.01c.199-.147 1.323-.21 2.671-.135l2.709.156-3.898-3.008c-2.86-2.204-4.623-3.153-6.636-3.58-1.509-.32-3.238-.701-3.842-.843-1.617-.379-4.332-3.209-5.437-5.672l-.962-2.155zm-8.882 15.174h.189c.503 0 .868.123 1.019.312l.019.021.009.021.038.094.009.031v.07300000000000001l-.009.052-.009.031c-.105.347-.671.981-1.265 1.415-.454.332-.725.513-.878.489l-.038-.01-.019-.01-.028-.031c-.103-.126-.123-.464-.123-1.062 0-1.094.201-1.394 1.086-1.426zm13.149 1.353h.028c.767 0 1.283.359 1.388.957.13.741-.178.947-1.388.947-.68 0-1.074-.071-1.265-.26-.141-.147-.169-.368-.113-.687.103-.589.603-.947 1.35-.957zm-3.851.323c.667-.052.934.343.934 1.186 0 1.016-.388 1.332-2.218 1.8-1.154.295-2.213.431-2.435.323l-.019-.01-.009-.01c-.633-.698-.078-1.595 1.501-2.425 1.016-.534 1.744-.825 2.247-.864zm8.863.01c.977-.032 1.1.429.623 1.8-.164.472-.844.853-1.51.853-.975 0-1.184-.236-1.057-1.218.113-.874.542-1.272 1.51-1.395l.434-.042zm-14.952 2.654h.104c1.185 0 .446 2.234-1.076 3.257-1.355.911-2.796 1.302-3.2.947l-.009-.01-.066-.094-.009-.021-.009-.031-.009-.021v-.031l-.009-.052v-.01c.033-1.22 2.885-3.813 4.285-3.934zm11.129 5.172c.564-.068.922.551.727 1.686-.109.632-.673 1.068-1.52 1.176-.647.082-1.046.053-1.199-.125l-.009-.01-.019-.031-.009-.021-.009-.01-.009-.042c-.075-.303.235-.866.925-1.78.399-.529.796-.803 1.123-.843zm-4.427.25h.076c1.134 0 1.317.998.293 1.603-.473.279-.932.487-1.086.51l-.019.01-.019-.01-1.388-.458-1.227-.416 1.388-.624c.714-.319 1.571-.582 1.982-.614zm9.543 1.249c.536-.028 1.116.076 1.68.312 1.025.429 1.224.802 1.029 1.925-.265 1.526-1.098 1.697-3.946.791-1.399-.445-1.543-.659-1.095-1.582.427-.881 1.309-1.392 2.331-1.447zm-21.125.375h.094c2.072 0 2.358.36 1.35 1.686-.338.444-.98 1.121-1.435 1.499-.695.577-.908.516-1.35-.395-.526-1.084-.691-1.798-.434-2.227.237-.383.819-.552 1.775-.562zm-5.456.916c.884-.024 1.429.393 2.133 1.603l.991 1.707-1.482.572c-1.353.52-1.58.422-2.7-1.155-.706-.994-.975-1.653-.783-2.071l.066-.114.028-.031.028-.031c.253-.253.762-.391 1.539-.458l.179-.021zm32.641 5.11c.982-.079 1.984.612 1.841 1.728-.183 1.417-1.73 1.827-3.002.801-.759-.612-.787-.839-.198-1.728.338-.509.845-.76 1.359-.801zm-18.529 2.654h.113l.227.042.123.062.038.031.019.021.019.021.019.021c.15.193.202.524.142.978-.195 1.46-1.162 1.889-1.576.697-.37-1.064-.011-1.816.878-1.873zm-6.192 1.124c.416-.056 1.099.22 1.784.791.465.388.658.764.651 1.041l-.009.083-.009.052-.019.042-.028.052-.009.021-.019.021-.057.062-.019.021c-.284.22-.887.168-1.576-.364-.57-.44-1.043-1.015-1.086-1.311v-.042c0-.282.147-.434.396-.468zm9.845.208c.192-.017.392.172.727.541.421.464.915 1.353 1.095 1.977.432 1.501-.251 2.128-1.586 1.447-1.434-.732-1.782-1.89-.953-3.195.316-.498.513-.752.717-.77zm3.436 2.04c.364-.05.859.496.982 1.415.072.536-.003.994-.17 1.134l-.009.01-.019.01-.028.01-.009.01h-.046c-.702 0-1.104-.633-1.104-1.759 0-.538.18-.802.406-.833zm-21.578 2.165c.723-.001 1.357.039 1.775.125.689.143 1.148.339 1.369.572l.113.167.028.094v.187c-.082.422-.688.937-1.812 1.53-.932.491-2.509 1.058-3.511 1.249-1.664.317-1.892.199-2.586-1.28-.411-.877-.745-1.712-.755-1.873v-.031l.009-.01.009-.021.009-.01c.348-.36 3.23-.695 5.352-.697zm33.472 4.871c1.938-.086 2.984 1.225.878 2.852-1.355 1.046-3.344 1.088-4.578.094-.888-.716-.842-.818.774-1.905 1.022-.687 2.061-1.002 2.926-1.041zm7.061 1.53h.104c.286-.001.947.336 1.473.76.935.754.932.804-.236 2.175-.605.71-1.221 1.266-1.435 1.311h-.036c-.156-.048-1.009-.182-1.888-.302-.978-.134-1.595-.528-1.595-1.01l.009-.073c.155-.811 2.576-2.736 3.606-2.862zm-35.501 2.165h.311c1.333 0 2.067 1.097 2.067 3.091 0 2.679-1.634 2.464-2.388-.312-.657-2.417-.723-2.738.009-2.779zm10.147.76c.803-.025 2.748.423 3.002.729l.009.01.009.01v.01l.009.01v.03c-.025.207-.545 1.052-1.17 1.894l-1.152 1.551-.604-1.998c-.298-.996-.482-1.894-.444-2.123v-.01l.009-.01v-.01l.009-.01.009-.01.009-.01h.009l.009-.01.019-.01.264-.042zm-4.937.885c.146-.014.373.023.689.073.633.099 1.215.625 1.312 1.186.118.682.052 1.157-.113 1.405l-.047.062-.057.052-.028.021-.113.052-.057.01h-.094c-.328-.042-.753-.449-1.123-1.238-.427-.91-.623-1.341-.547-1.519l.028-.042.151-.062z" fill="#00a651"/></svg>